<?xml version="1.0" standalone="no"?>
<!DOCTYPE svg PUBLIC "-//W3C//DTD SVG 1.1//EN" "http://www.w3.org/Graphics/SVG/1.1/DTD/svg11.dtd" >
<svg xmlns="http://www.w3.org/2000/svg" xmlns:xlink="http://www.w3.org/1999/xlink" version="1.1">
<metadata></metadata>
<defs>
<font id="fira_monomedium" horiz-adv-x="1228" >
<font-face units-per-em="2048" ascent="1608" descent="-440" />
<missing-glyph horiz-adv-x="500" />
<glyph horiz-adv-x="0" />
<glyph unicode="&#xd;" />
<glyph unicode=" " />
<glyph unicode="!" d="M459 129q0 63 45 108.5t108 45.5q68 0 113 -45t45 -109q0 -66 -45 -111t-113 -45q-63 0 -108 45t-45 111zM485 1413h252l-26 -926h-197z" />
<glyph unicode="&#x22;" d="M307 1516h252l-35 -547h-182zM670 1516h252l-35 -547h-182z" />
<glyph unicode="#" d="M94 328v164h168l60 434h-152v166h174l41 321h195l-45 -321h260l43 321h192l-43 -321h148v-166h-170l-58 -434h152v-164h-174l-41 -328h-195l45 328h-260l-43 -328h-192l43 328h-148zM457 492h258l59 434h-260z" />
<glyph unicode="$" d="M119 168l125 139q145 -137 317 -151v512q-199 66 -294 162t-95 239t103.5 245.5t285.5 121.5v307h150v-305q223 -23 387 -164l-125 -129q-117 100 -262 117v-424q195 -63 301 -165t106 -274q0 -162 -106.5 -277.5t-300.5 -141.5v-299h-150v292q-137 10 -249.5 63.5 t-192.5 131.5zM397 1083q0 -66 34 -109.5t130 -84.5v371q-76 -15 -120 -60t-44 -117zM711 164q176 35 176 219q0 78 -39 132t-137 99v-450z" />
<glyph unicode="%" d="M27 1116q0 139 80.5 232.5t218.5 93.5q135 0 215 -92.5t80 -233.5t-80 -234.5t-215 -93.5q-137 0 -218 93.5t-81 234.5zM106 25l865 1429l135 -72l-866 -1429zM205 1116q0 -90 31.5 -140t89.5 -50q119 0 118 190q0 188 -118 189q-60 0 -90.5 -48.5t-30.5 -140.5zM608 315 q0 139 81 232.5t218 93.5t217 -92t80 -234q0 -141 -80 -234t-217 -93t-218 93t-81 234zM786 315q0 -92 32 -142t89 -50t88 48t31 144q0 188 -119 189q-57 0 -89 -47t-32 -142z" />
<glyph unicode="&#x26;" d="M98 401q0 160 81 259.5t235 134.5v6q-125 31 -184.5 109.5t-59.5 189.5q0 94 50 171t141.5 123t209.5 46q111 0 197 -35t166 -121l-129 -117q-53 57 -103.5 83t-117.5 26q-92 0 -141.5 -52.5t-49.5 -138.5q0 -90 65.5 -152.5t164.5 -62.5h555v-163h-164v-549 q-66 -76 -174.5 -130.5t-270.5 -54.5q-154 0 -260 58.5t-158.5 156t-52.5 213.5zM322 414q0 -115 65.5 -191t192.5 -76q72 0 130 24t93 65v471h-203q-135 0 -206.5 -88.5t-71.5 -204.5z" />
<glyph unicode="'" d="M489 1516h250l-34 -547h-181z" />
<glyph unicode="(" d="M236 717q0 328 131 561t397 457l129 -123q-152 -145 -242 -273.5t-134 -278t-44 -343.5q0 -195 43 -342.5t133 -275.5t244 -277l-129 -123q-266 223 -397 456.5t-131 561.5z" />
<glyph unicode=")" d="M336 -178q154 150 244 277.5t133 275t43 342.5q0 194 -44 343.5t-134.5 277.5t-241.5 274l129 123q266 -223 397 -457t131 -561q0 -328 -131 -561.5t-397 -456.5z" />
<glyph unicode="*" d="M182 686l64 199l297 -129l-35 325h213l-37 -325l299 129l64 -199l-316 -65l223 -238l-172 -129l-168 283l-155 -287l-176 123l217 248z" />
<glyph unicode="+" d="M211 545v186h301v309h203v-309h303v-186h-303v-309h-203v309h-301z" />
<glyph unicode="," d="M408 -387l98 418q-37 25 -57.5 65.5t-20.5 87.5q0 78 54.5 131.5t131.5 53.5q80 0 134.5 -53.5t54.5 -131.5q0 -45 -13.5 -90t-46.5 -119l-157 -362h-178z" />
<glyph unicode="-" d="M244 547v188h743v-188h-743z" />
<glyph unicode="." d="M416 172q0 82 57 139.5t139 57.5q84 0 142.5 -57.5t58.5 -139.5q0 -84 -58.5 -141.5t-142.5 -57.5q-82 0 -139 57.5t-57 141.5z" />
<glyph unicode="/" d="M88 -135l870 1798l183 -84l-869 -1796z" />
<glyph unicode="0" d="M133 709q0 354 123 543.5t358 189.5q236 0 359 -189.5t123 -543.5t-123 -545t-359 -191t-358.5 190.5t-122.5 545.5zM365 709q0 -295 63.5 -428.5t185.5 -133.5q123 0 186.5 133.5t63.5 428.5q0 293 -63.5 425t-186.5 132q-122 0 -185.5 -133.5t-63.5 -423.5zM481 707 q0 55 38 94t95 39q58 0 97 -39t39 -94q0 -57 -39 -96.5t-97 -39.5q-57 0 -95 39t-38 97z" />
<glyph unicode="1" d="M166 1147l434 266h203v-1233h282v-180h-854v180h344v998l-311 -193z" />
<glyph unicode="2" d="M106 1225q84 109 193 163t258 54q139 0 241.5 -53.5t156 -143.5t53.5 -203q0 -125 -58.5 -242.5t-187.5 -259t-365 -354.5h643l-26 -186h-879v174q266 256 396.5 400.5t183.5 246t53 207.5t-60.5 167.5t-166.5 61.5q-92 0 -157 -33.5t-130 -113.5z" />
<glyph unicode="3" d="M80 170l141 123q57 -68 137 -102.5t168 -34.5q133 0 209 68.5t76 187.5q0 248 -272 247h-121l26 168h86q106 0 177 57.5t71 166.5q0 100 -68.5 156.5t-174.5 56.5q-86 0 -156 -31t-137 -96l-121 131q180 174 432 174q135 0 238.5 -48t159 -130t55.5 -179q0 -127 -79 -216 t-202 -117q143 -14 234.5 -102.5t91.5 -246.5q0 -121 -63.5 -219t-180.5 -154.5t-268 -56.5q-137 0 -258 50.5t-201 146.5z" />
<glyph unicode="4" d="M127 326v159l405 957l195 -76l-360 -862h348l22 377h197v-377h168v-178h-168v-326h-221v326h-586z" />
<glyph unicode="5" d="M127 158l137 129q119 -131 287 -131q131 0 204.5 78.5t73.5 220.5q0 279 -231 278q-51 0 -98 -11t-103 -36h-170v727h793l-31 -172h-543v-393q109 55 232 55q113 0 202 -53t139 -154.5t50 -240.5q0 -141 -63.5 -251t-178 -170.5t-266.5 -60.5q-260 0 -434 185z" />
<glyph unicode="6" d="M139 657q0 236 66.5 413t193.5 274.5t299 97.5q162 0 291 -86l-88 -148q-94 59 -203 60q-143 0 -228 -134.5t-95 -367.5q127 166 323 166q113 0 203 -52.5t143.5 -154.5t53.5 -248q0 -147 -60.5 -262t-166 -178.5t-240.5 -63.5q-254 0 -373 183.5t-119 500.5zM377 596 q4 -233 63.5 -341t192.5 -108q112 0 171.5 86t59.5 234q0 156 -55 223.5t-158 67.5q-82 0 -152.5 -43t-121.5 -119z" />
<glyph unicode="7" d="M176 1233v180h881v-164l-559 -1274l-215 68l540 1190h-647z" />
<glyph unicode="8" d="M117 375q0 242 274 364q-115 59 -167 134t-52 192q0 121 63.5 206t165 128t213.5 43q121 0 221.5 -42t161 -124t60.5 -199q0 -100 -58.5 -174t-177.5 -141q141 -63 216 -159.5t75 -221.5q0 -115 -60.5 -208t-174 -146.5t-267.5 -53.5q-156 0 -267.5 53.5t-168.5 144.5 t-57 204zM352 383q0 -111 66.5 -173.5t193.5 -62.5q125 0 195 66t70 166q0 82 -39 134t-105.5 85t-191.5 76q-188 -96 -189 -291zM395 1063q0 -68 31 -111t86 -70.5t154 -62.5q90 55 129 110.5t39 135.5q0 96 -57.5 152.5t-162.5 56.5q-104 0 -161.5 -55.5t-57.5 -155.5z " />
<glyph unicode="9" d="M119 958q0 150 62.5 258.5t171 166t245.5 57.5q238 0 360.5 -147.5t122.5 -405.5q0 -287 -81.5 -468t-253 -288.5t-459.5 -179.5l-51 168q283 72 432 198.5t172 339.5q-131 -150 -320 -151q-115 0 -206 55t-143 157.5t-52 239.5zM354 958q0 -143 59.5 -211.5t166.5 -68.5 q79 2 142.5 39t121.5 106q4 240 -52.5 341.5t-193.5 101.5q-119 0 -181.5 -78t-62.5 -230z" />
<glyph unicode=":" d="M428 158q0 75 54.5 128.5t129.5 53.5q80 0 133.5 -53.5t53.5 -128.5q0 -78 -53.5 -131.5t-133.5 -53.5q-76 0 -130 54.5t-54 130.5zM428 885q0 76 54.5 130t129.5 54q80 0 133.5 -54t53.5 -130t-53.5 -130.5t-133.5 -54.5q-76 0 -130 54.5t-54 130.5z" />
<glyph unicode=";" d="M408 -383l98 412q-35 25 -56.5 65.5t-21.5 85.5q0 78 53.5 131.5t130.5 53.5q80 0 133.5 -53.5t53.5 -131.5q0 -43 -13.5 -88t-44.5 -117l-157 -358h-176zM428 885q0 76 54.5 130t129.5 54q80 0 133.5 -54t53.5 -130t-53.5 -130.5t-133.5 -54.5q-76 0 -130 54.5 t-54 130.5z" />
<glyph unicode="&#x3c;" d="M166 543v198l792 490l107 -166l-700 -424l700 -422l-113 -166z" />
<glyph unicode="=" d="M190 340v188h848v-188h-848zM190 745v189h848v-189h-848z" />
<glyph unicode="&#x3e;" d="M166 217l700 424l-700 420l106 170l793 -490v-198l-786 -490z" />
<glyph unicode="?" d="M158 1233q178 209 452 209q133 0 230.5 -45t148.5 -121t51 -162q0 -80 -27.5 -136t-66.5 -92t-104 -83q-59 -43 -93 -74t-57.5 -76t-23.5 -106v-60h-222v70q0 88 30 151.5t72 103.5t107 89q74 53 110 94t36 103q0 74 -59.5 115.5t-153.5 41.5q-74 0 -146.5 -34.5 t-130.5 -106.5zM408 129q0 63 45 108.5t108 45.5q66 0 112 -45t46 -109q0 -66 -46 -111t-112 -45q-63 0 -108 45t-45 111z" />
<glyph unicode="@" d="M10 1212q262 229 574 230q354 0 490 -229.5t136 -620.5q0 -274 -25.5 -442t-93 -253t-190.5 -85q-78 0 -132 45t-80.5 111.5t-31.5 131.5h-8q-35 -86 -104.5 -141t-177.5 -55q-164 0 -241 127t-77 342q0 262 106.5 399t309.5 137q156 0 309 -82v-608q0 -137 31 -191.5 t90 -54.5q51 0 74.5 70t30 189.5t6.5 351.5q0 223 -34 371.5t-128 232.5t-264 84q-115 0 -227.5 -42t-231.5 -147zM264 373q0 -154 31 -233t106 -79q80 0 117 48.5t60 117.5v500q-53 27 -111 27q-115 0 -159 -88t-44 -293z" />
<glyph unicode="A" d="M16 0l451 1413h295l450 -1413h-251l-99 340h-504l-98 -340h-244zM408 524h405l-203 705z" />
<glyph unicode="B" d="M166 0v1413h387q225 0 370.5 -83t145.5 -275q0 -125 -74.5 -203t-187.5 -102q139 -25 231 -104t92 -238q0 -220 -155.5 -314t-394.5 -94h-414zM403 184h193q285 0 285 226q0 131 -74 185t-203 54h-201v-465zM403 827h185q121 0 180 50.5t59 158.5q0 103 -64.5 151 t-189.5 48h-170v-408z" />
<glyph unicode="C" d="M106 709q0 229 83 395t225.5 252t318.5 86q139 0 237.5 -35t188.5 -109l-123 -147q-129 104 -293 104q-172 0 -280.5 -132t-108.5 -414q0 -279 106.5 -411t284.5 -132q100 0 174 31.5t146 89.5l115 -146q-172 -168 -443 -168q-182 0 -325.5 85t-224.5 251t-81 400z" />
<glyph unicode="D" d="M145 0v1413h324q307 0 493.5 -148.5t186.5 -549.5q0 -402 -186.5 -558.5t-470.5 -156.5h-347zM385 182h131q172 0 277.5 118t105.5 415q0 303 -105.5 409.5t-279.5 106.5h-129v-1049z" />
<glyph unicode="E" d="M231 0v1413h850l-26 -180h-586v-424h512v-180h-512v-449h625v-180h-863z" />
<glyph unicode="F" d="M260 0v1413h868l-24 -180h-606v-451h532v-180h-532v-602h-238z" />
<glyph unicode="G" d="M76 709q0 233 83 399t223 250t310 84q137 0 235.5 -41t186.5 -123l-135 -137q-66 59 -132.5 86.5t-148.5 27.5q-164 0 -268 -132t-104 -414q0 -291 83 -421t255 -130q119 0 231 59v389h-240l-24 182h495v-686q-109 -61 -222 -95t-253 -34q-274 0 -424.5 187.5 t-150.5 548.5z" />
<glyph unicode="H" d="M145 0v1413h240v-573h459v573h239v-1413h-239v641h-459v-641h-240z" />
<glyph unicode="I" d="M188 0v182h306v1049h-306v182h852v-182h-305v-1049h305v-182h-852z" />
<glyph unicode="J" d="M123 104l96 152q80 -53 150.5 -73.5t146.5 -20.5q133 0 210 86t77 241v742h-424v182h661v-928q0 -223 -128 -367.5t-388 -144.5q-223 0 -401 131z" />
<glyph unicode="K" d="M178 0v1413h240v-1413h-240zM428 756l490 657h262l-494 -643l533 -770h-285z" />
<glyph unicode="L" d="M244 0v1413h239v-1214h633l-26 -199h-846z" />
<glyph unicode="M" d="M51 0l80 1413h287l200 -946l193 946h287l80 -1413h-220l-32 688q-6 135 -6 256q0 156 6 223h-8l-201 -917h-207l-213 917h-8q8 -98 8 -254q0 -72 -4 -227l-27 -686h-215z" />
<glyph unicode="N" d="M145 0v1413h310l442 -1171h8q-10 59 -22.5 209.5t-12.5 318.5v643h213v-1413h-311l-440 1167h-8q10 -57 22 -216.5t12 -309.5v-641h-213z" />
<glyph unicode="O" d="M76 705q0 221 61.5 386.5t182 258t294.5 92.5q260 0 399.5 -197.5t139.5 -537.5q0 -336 -139.5 -535t-399.5 -199t-399 196t-139 536zM324 705q0 -276 70.5 -411.5t219.5 -135.5q154 0 222.5 135t68.5 414q0 278 -68.5 413t-222.5 135t-222 -135t-68 -415z" />
<glyph unicode="P" d="M195 0v1413h393q272 0 419.5 -111.5t147.5 -332.5q0 -238 -147.5 -351.5t-403.5 -113.5h-170v-504h-239zM434 686h172q143 0 221 65.5t78 217.5q0 266 -301 266h-170v-549z" />
<glyph unicode="Q" d="M82 705q0 338 138 537.5t396 199.5q260 0 397.5 -196.5t137.5 -538.5q0 -483 -287 -641q154 -31 241 -106t140 -232l-219 -82q-47 117 -100.5 187.5t-133 107t-198.5 36.5q-248 0 -380 194t-132 534zM330 705q0 -279 68.5 -413t217.5 -134q154 0 220.5 134t66.5 415 q0 280 -66.5 414t-220.5 134t-220 -135t-66 -415z" />
<glyph unicode="R" d="M174 0v1413h393q553 0 553 -409q0 -148 -88 -246.5t-233 -143.5l399 -614h-276l-357 582h-153v-582h-238zM412 756h176q139 0 210.5 59t71.5 189q0 120 -70.5 176.5t-217.5 56.5h-170v-481z" />
<glyph unicode="S" d="M63 162l132 145q160 -147 389 -147q127 0 210 59.5t83 167.5q0 63 -26 106.5t-88.5 77t-176.5 68.5q-233 70 -344 166t-111 254q0 113 62.5 200t173 135t249.5 48q287 0 474 -170l-125 -142q-72 63 -158 94t-176 31q-113 0 -184.5 -47t-71.5 -135q0 -55 29.5 -93 t100 -70.5t202.5 -71.5q205 -61 311 -157.5t106 -281.5q0 -127 -64.5 -223t-186 -149.5t-289.5 -53.5q-326 0 -521 189z" />
<glyph unicode="T" d="M68 1221v192h1097l-24 -192h-410v-1221h-237v1221h-426z" />
<glyph unicode="U" d="M125 463v950h237v-905q0 -174 60.5 -260t189.5 -86q131 0 191.5 86t60.5 260v905h240v-950q0 -144 -58.5 -254.5t-169 -173t-264.5 -62.5q-231 0 -359 133.5t-128 356.5z" />
<glyph unicode="V" d="M31 1413h254l333 -1188l338 1188h242l-446 -1413h-275z" />
<glyph unicode="W" d="M4 1413h229l105 -1163h8l150 999h243l138 -995h8l127 1159h213l-195 -1413h-278l-136 1020h-8l-139 -1020h-285z" />
<glyph unicode="X" d="M41 0l428 752l-391 661h264l272 -508l277 508h254l-391 -649l434 -764h-266l-312 600l-313 -600h-256z" />
<glyph unicode="Y" d="M23 1413h262l333 -670l338 670h250l-471 -872v-541h-241v539z" />
<glyph unicode="Z" d="M121 0v184l717 1037h-643v192h907v-186l-709 -1030h715l-27 -197h-960z" />
<glyph unicode="[" d="M354 -242v1917h559v-182h-342v-1554h342v-181h-559z" />
<glyph unicode="\" d="M88 1579l182 84l871 -1798l-185 -82z" />
<glyph unicode="]" d="M315 -59h342v1552h-342v182h559v-1917h-559v183z" />
<glyph unicode="^" d="M123 1079l387 643h209l387 -643h-238l-256 457l-252 -457h-237z" />
<glyph unicode="_" d="M12 -184h1205v-191h-1205v191z" />
<glyph unicode="`" d="M358 1464l109 183l403 -261l-71 -120z" />
<glyph unicode="a" d="M115 309q0 170 133 262.5t381 92.5h153v69q0 102 -61.5 149.5t-177.5 47.5q-57 0 -133 -14.5t-154 -41.5l-57 162q195 74 379 74q215 0 323.5 -94t108.5 -268v-482q0 -63 18.5 -93t63.5 -44l-54 -156q-170 20 -223 150q-59 -74 -149.5 -112t-196.5 -38q-164 0 -259 92.5 t-95 243.5zM356 317q0 -86 46.5 -131t136.5 -45q71 0 137.5 38t105.5 104v237h-127q-156 0 -227.5 -52t-71.5 -151z" />
<glyph unicode="b" d="M182 0v1516l230 26v-590q55 76 132 117t165 41q207 0 305 -149.5t98 -417.5q0 -254 -113.5 -412t-316.5 -158q-182 0 -285 133l-12 -106h-203zM412 272q39 -59 93 -92t120 -33q118 0 180.5 97.5t62.5 296.5q0 205 -56 299t-167 94q-70 0 -130 -43t-103 -113v-506z" />
<glyph unicode="c" d="M170 535q0 166 63.5 296t183.5 204.5t283 74.5q215 0 375 -129l-106 -150q-129 94 -264 95q-135 0 -213 -97.5t-78 -293.5q0 -193 78.5 -283t212.5 -90q133 0 266 98l106 -154q-74 -61 -174 -97t-207 -36q-248 0 -387 153t-139 409z" />
<glyph unicode="d" d="M117 541q0 166 51 295t148.5 201.5t228.5 72.5q166 0 272 -117v549l230 -26v-1516h-203l-17 133q-53 -78 -131 -119t-172 -41q-203 0 -305 151.5t-102 416.5zM360 541q0 -203 57.5 -297t168.5 -94q133 0 231 153v510q-84 121 -213 121q-119 0 -181.5 -97.5t-62.5 -295.5z " />
<glyph unicode="e" d="M135 541q0 162 59.5 292t170 203.5t258.5 73.5q219 0 346 -144.5t127 -396.5q0 -61 -6 -102h-717q10 -158 91 -236.5t204 -78.5q162 0 282 100l101 -143q-76 -63 -178.5 -99.5t-215.5 -36.5q-248 0 -385 155t-137 413zM373 625h499q-4 154 -66.5 234.5t-178.5 80.5 q-109 0 -176.5 -80t-77.5 -235z" />
<glyph unicode="f" d="M178 834v170h246v194q0 102 52 180t146.5 121t217.5 43q176 0 323 -63l-69 -160q-102 45 -232 45q-106 0 -157.5 -41t-51.5 -129v-190h363l-25 -170h-338v-834h-229v834h-246z" />
<glyph unicode="g" d="M106 -106h207q0 -61 23.5 -97.5t83 -53.5t172.5 -17q164 0 235.5 39.5t71.5 117.5q0 66 -56.5 101.5t-152.5 35.5h-186q-145 0 -220 58.5t-75 148.5q0 55 30.5 106.5t88.5 90.5q-96 51 -141.5 124t-45.5 179q0 113 57.5 200t161 135t234.5 48h24q159 0 256 24 q103 27 220 85l61 -191q-59 -20 -135 -27.5t-180 -7.5q98 -45 147 -112.5t49 -163.5q0 -106 -52 -188.5t-148.5 -129.5t-227.5 -47q-92 0 -147 19q-23 -16 -35 -40t-12 -50q0 -37 29.5 -58.5t105.5 -21.5h188q113 0 203 -39t140 -107.5t50 -154.5q0 -164 -139 -253t-401 -89 q-182 0 -288.5 37.5t-151 110.5t-44.5 188zM377 727q0 -104 57.5 -164.5t165.5 -60.5q100 0 153.5 59.5t53.5 169.5q0 219 -211 219q-107 0 -163 -60.5t-56 -162.5z" />
<glyph unicode="h" d="M182 0v1513l230 25v-588q65 78 152 119t184 41q150 0 225.5 -83t75.5 -239v-788h-230v752q0 98 -37 140t-118 42q-72 0 -137.5 -45t-114.5 -115v-774h-230z" />
<glyph unicode="i" d="M219 0v168h324v745h-314v168h545v-913h293v-168h-848zM463 1468q0 61 42 102.5t109 41.5q66 0 108 -41t42 -103q0 -63 -41 -105t-109 -42t-109.5 42t-41.5 105z" />
<glyph unicode="j" d="M176 -264q262 49 394 156.5t132 320.5v700h-426v168h658v-854q0 -293 -179.5 -448.5t-541.5 -220.5zM604 1468q0 61 42 102.5t108 41.5q67 0 109 -41t42 -103q0 -63 -42 -105t-109 -42q-66 0 -108 42t-42 105z" />
<glyph unicode="k" d="M188 0v1516l232 26v-1542h-232zM436 592l430 489h269l-437 -483l482 -598h-281z" />
<glyph unicode="l" d="M102 1348v168h555v-1221q0 -135 164 -135q78 0 172 35l58 -160q-113 -61 -279 -62q-162 0 -253 91.5t-91 250.5v1033h-326z" />
<glyph unicode="m" d="M84 0v1081h174l16 -116q51 72 104.5 108.5t127.5 36.5q143 0 184 -137q49 66 106.5 101.5t131.5 35.5q102 0 159.5 -69.5t57.5 -237.5v-803h-205v772q0 90 -13.5 124t-58.5 34q-86 0 -159 -107v-823h-187v772q0 90 -13 124t-58 34q-86 0 -160 -107v-823h-207z" />
<glyph unicode="n" d="M182 0v1081h199l16 -139q68 80 160 124t191 44q150 0 225.5 -83t75.5 -239v-788h-230v676q0 98 -12 152.5t-45 80t-96 25.5q-74 0 -138.5 -45t-115.5 -115v-774h-230z" />
<glyph unicode="o" d="M125 541q0 258 130 413.5t361 155.5q234 0 361 -152.5t127 -414.5t-129 -416t-361 -154q-233 0 -361 150.5t-128 417.5zM367 541q0 -201 61 -296t186 -95t186.5 96t61.5 297q0 199 -61.5 294t-184.5 95q-124 0 -186.5 -96.5t-62.5 -294.5z" />
<glyph unicode="p" d="M182 -442v1523h201l14 -139q61 82 141 125t173 43q393 0 393 -567q0 -256 -108.5 -413t-309.5 -157q-170 0 -274 119v-508zM412 272q81 -120 211 -120h2q119 0 178 94t59 295q0 207 -53 300t-162 93q-72 0 -131 -43t-104 -113v-506z" />
<glyph unicode="q" d="M125 541q0 254 111.5 411.5t310.5 157.5q181 0 287 -135l14 106h199v-1523l-230 26v535q-111 -145 -295 -146q-205 0 -301 148.5t-96 419.5zM367 541q0 -203 54 -296t163 -93q74 0 132 40.5t101 110.5v510q-82 121 -213 121q-237 0 -237 -393z" />
<glyph unicode="r" d="M178 0v168h240v745h-240v168h443l24 -204q43 111 124 171t181 60q74 0 140 -16l-41 -226q-66 18 -125 19q-100 0 -173 -80t-102 -199v-438h293v-168h-764z" />
<glyph unicode="s" d="M131 125l123 139q142 -114 318 -114h3q109 0 171.5 37.5t62.5 105.5q0 47 -18.5 76.5t-73.5 55.5t-166 54q-178 45 -267 116t-89 204q0 141 116.5 226t315.5 85q244 0 411 -125l-96 -145q-72 45 -146.5 70.5t-162.5 25.5q-203 0 -203 -119q0 -41 23.5 -67.5t80 -50 t171.5 -54.5q176 -47 262 -119.5t86 -216.5q0 -166 -137.5 -251t-340.5 -85q-270 0 -444 152z" />
<glyph unicode="t" d="M145 913v168h240v242l231 27v-269h365l-27 -168h-338v-583q0 -88 44.5 -129t142.5 -41q106 0 201 49l81 -152q-59 -39 -142 -61.5t-173 -22.5q-184 0 -284.5 95.5t-100.5 259.5v585h-240z" />
<glyph unicode="u" d="M182 297v784h230v-755q0 -95 37.5 -137t115.5 -42q74 0 142.5 43t109.5 109v782h230v-1081h-199l-14 139q-57 -80 -149.5 -123t-190.5 -43q-156 0 -234 84t-78 240z" />
<glyph unicode="v" d="M98 1081h248l272 -891l277 891h235l-380 -1081h-271z" />
<glyph unicode="w" d="M25 1081h221l110 -909h9l145 772h229l131 -768h9l112 905h213l-176 -1081h-287l-118 741h-9l-125 -741h-282z" />
<glyph unicode="x" d="M88 0l387 569l-344 512h264l221 -381l222 381h252l-338 -501l389 -580h-271l-264 442l-264 -442h-254z" />
<glyph unicode="y" d="M100 1081h244l272 -921l277 921h235l-372 -1085q-66 -199 -191 -309.5t-340 -128.5l-28 172q106 16 171.5 50t103.5 85t71 135h-78z" />
<glyph unicode="z" d="M186 0v168l576 729h-531v184h803v-168l-571 -729h577l-24 -184h-830z" />
<glyph unicode="{" d="M231 625v184q162 0 231.5 43t69.5 137q0 20 -2 31l-38 352q-2 16 -3 49q0 160 116 226.5t331 66.5v-170q-115 0 -177.5 -33.5t-53.5 -115.5l38 -375q2 -18 2 -51q0 -113 -61 -172.5t-180 -79.5q123 -20 182 -76.5t59 -173.5q0 -35 -2 -53l-38 -375q-8 -82 54 -116 t177 -34v-170q-215 0 -331 67t-116 226q0 33 3 49l38 353q2 10 2 30q0 94 -69.5 137.5t-231.5 43.5z" />
<glyph unicode="|" d="M508 -211v1866h211v-1866h-211z" />
<glyph unicode="}" d="M293 -111q115 0 177 34t54 116l-39 375q-2 18 -2 51q0 117 62.5 174t193.5 76q-129 23 -192.5 81t-63.5 173q0 33 2 51l39 375q8 82 -54 115.5t-177 33.5v170q215 0 330.5 -66.5t115.5 -226.5q0 -33 -2 -49l-39 -352l-2 -29q0 -94 73 -138t228 -44v-184 q-156 0 -228.5 -44t-72.5 -139l2 -28l39 -353q2 -16 2 -49q0 -160 -115.5 -226.5t-330.5 -66.5v170z" />
<glyph unicode="~" d="M72 559q66 131 144.5 208t201.5 77q76 0 129 -31t121 -90q51 -45 81.5 -64.5t67.5 -19.5q57 0 104.5 43t90.5 125l145 -70q-66 -133 -144.5 -208.5t-201.5 -75.5q-72 0 -125 30.5t-119 87.5q-49 43 -82.5 64.5t-72.5 21.5q-59 0 -104.5 -43t-90.5 -125z" />
<glyph unicode="&#xa0;" />
<glyph unicode="&#xa1;" d="M459 874q0 66 45 112t108 46q66 0 112 -46t46 -112q0 -63 -46 -108t-112 -45q-63 0 -108 45t-45 108zM485 -410l33 926h191l32 -926h-256z" />
<glyph unicode="&#xa2;" d="M197 535q0 227 104.5 378.5t296.5 182.5v309h180v-305q141 -19 256 -113l-108 -143q-61 45 -113.5 63.5t-112.5 18.5q-125 0 -192.5 -96.5t-67.5 -294.5q0 -373 260 -373q59 0 111.5 19.5t114.5 66.5l108 -154q-109 -90 -256 -112v-301h-182v305q-195 31 -297 175 t-102 374z" />
<glyph unicode="&#xa3;" d="M127 0v176q76 23 112.5 59.5t46 84t9.5 129.5v217h-160v139h160v239q0 115 50 205t145.5 141.5t224.5 51.5q252 -1 387 -189l-148 -110q-47 61 -101 89t-124 28q-100 0 -152.5 -57.5t-52.5 -170.5v-227h404v-139h-404v-215q0 -94 -26.5 -160t-100.5 -107h682l-26 -184 h-926z" />
<glyph unicode="&#xa4;" d="M68 272l176 177q-70 104 -70 251q0 143 68 250l-174 176l125 125l176 -178q102 66 247 66q139 0 246 -66l174 176l125 -125l-172 -172q72 -106 72 -252q0 -143 -74 -254l174 -172l-125 -122l-176 172q-104 -63 -244 -64q-141 0 -249 64l-174 -177zM377 700 q0 -129 61.5 -198.5t177.5 -69.5q117 0 177.5 69.5t60.5 198.5q0 127 -60.5 198t-177.5 71q-116 0 -177.5 -71t-61.5 -198z" />
<glyph unicode="&#xa5;" d="M55 1413h252l309 -622h9l307 622h242l-386 -700h230v-138h-285v-163h285v-138h-285v-274h-235v274h-281v138h281v163h-281v138h221z" />
<glyph unicode="&#xa6;" d="M508 -211v735h211v-735h-211zM508 922v733h211v-733h-211z" />
<glyph unicode="&#xa7;" d="M195 645q0 80 46 146.5t119 111.5q-119 92 -118 227q0 92 53 163t146.5 110t209.5 39q199 0 363 -113l-96 -143q-63 43 -127 63.5t-142 20.5q-80 0 -128 -35t-48 -92q0 -43 18.5 -71t70.5 -53.5t157 -60.5q166 -53 239.5 -123.5t73.5 -191.5q0 -82 -45 -148.5 t-119 -111.5q121 -90 121 -225q0 -141 -115.5 -226.5t-304.5 -85.5q-211 0 -368 113l94 150q66 -45 131.5 -67t142.5 -22q84 0 136.5 34t52.5 91q0 43 -19.5 71t-72 53.5t-158.5 60.5q-166 55 -239.5 124.5t-73.5 190.5zM410 678q0 -55 25.5 -86t87 -57.5t214.5 -81.5 q39 37 60.5 78.5t21.5 80.5q0 51 -25.5 82t-88 58.5t-213.5 83.5q-39 -37 -60.5 -79t-21.5 -79z" />
<glyph unicode="&#xa8;" d="M258 1450q0 55 39 92t96 37q55 0 94 -37t39 -92t-38.5 -93t-94.5 -38q-57 0 -96 37t-39 94zM702 1450q0 55 39 92t95 37q57 0 95 -37t38 -92q0 -57 -38 -94t-95 -37q-56 0 -95 38t-39 93z" />
<glyph unicode="&#xa9;" d="M43 883q0 184 68.5 332.5t198.5 235.5t306 87q177 0 306 -86t196.5 -235.5t67.5 -333.5q0 -182 -67.5 -332t-196.5 -236t-306 -86q-178 0 -308 86t-197.5 234.5t-67.5 333.5zM180 883q0 -233 111.5 -384t324.5 -151q211 0 323 150.5t112 384.5q0 236 -112 387t-323 151 q-213 0 -324.5 -151.5t-111.5 -386.5zM291 885q0 123 44 212t120.5 135t173.5 46q76 0 130 -20.5t107 -65.5l-82 -109q-70 55 -143 56q-78 0 -125 -62.5t-47 -191.5q0 -127 46 -188.5t126 -61.5q88 0 160 65l76 -110q-106 -98 -246 -98q-156 0 -248 103t-92 290z" />
<glyph unicode="&#xaa;" d="M195 903q0 137 116.5 213t327.5 76h115v47q0 78 -46 110.5t-143 32.5q-45 0 -110.5 -12t-135.5 -35l-55 144q174 63 330 63q360 0 360 -297v-379q0 -43 16.5 -66.5t49.5 -33.5l-47 -137q-74 8 -120 35.5t-73 83.5q-51 -57 -122.5 -89t-151.5 -32q-139 0 -225 75.5 t-86 200.5zM213 0v180h819v-180h-819zM414 911q0 -68 37.5 -102.5t109.5 -34.5q55 0 105.5 30t87.5 79v172h-97q-127 0 -185 -36t-58 -108z" />
<glyph unicode="&#xab;" d="M145 518v156l355 436l135 -86l-260 -428l260 -428l-135 -86zM590 518v156l358 436l135 -86l-262 -428l262 -428l-135 -86z" />
<glyph unicode="&#xac;" d="M211 551v186h807v-485h-201v299h-606z" />
<glyph unicode="&#xad;" d="M289 547v188h651v-188h-651z" />
<glyph unicode="&#xae;" d="M78 1001q0 147 71.5 270.5t194.5 195t270 71.5q148 0 271 -71.5t193.5 -194.5t70.5 -271q0 -147 -70.5 -269t-193.5 -192.5t-271 -70.5q-147 0 -270 70.5t-194.5 192.5t-71.5 269zM205 1001q0 -117 53 -214t146.5 -152t209.5 -55q115 0 208 55t146.5 152.5t53.5 213.5 q0 117 -53.5 215.5t-146.5 154.5t-208 56q-114 0 -208.5 -56t-147.5 -154.5t-53 -215.5zM406 723v580h176q258 -1 258 -177q0 -61 -35 -102t-94 -59l170 -242h-150l-143 219h-56v-219h-126zM532 1042h60q57 0 87 19.5t30 64.5q0 78 -121 78h-56v-162z" />
<glyph unicode="&#xaf;" d="M324 1370v168h579v-168h-579z" />
<glyph unicode="&#xb0;" d="M139 1212q0 100 49.5 175t128 115t166.5 40t168 -40t128 -115.5t48 -176.5q0 -100 -48 -176t-128 -115.5t-168 -39.5t-166.5 39.5t-128 116.5t-49.5 177zM315 1212q0 -86 48.5 -135t119.5 -49q72 0 120 48t48 134q0 88 -48 136.5t-120 48.5q-71 0 -119.5 -48.5 t-48.5 -134.5z" />
<glyph unicode="&#xb1;" d="M211 0v186h807v-186h-807zM211 623v184h301v311h205v-311h301v-184h-301v-281h-205v281h-301z" />
<glyph unicode="&#xb2;" d="M309 1173q123 141 309 142q131 0 205 -60.5t74 -154.5q0 -64 -29.5 -112t-99.5 -94t-197 -108h349l-21 -141h-575v125q168 98 245.5 149.5t107.5 87t30 78.5q0 41 -28 64.5t-77 23.5q-100 0 -174 -88z" />
<glyph unicode="&#xb3;" d="M293 749l108 93q90 -76 209 -76q68 0 101.5 22.5t33.5 61.5q0 43 -31.5 62.5t-97.5 19.5h-100l19 104h75q111 0 111 70q0 76 -109 76q-55 0 -103 -16.5t-99 -53.5l-95 96q133 106 314 107q129 0 201.5 -50.5t72.5 -132.5q0 -57 -33.5 -91t-109.5 -48q90 -14 131 -49 t41 -106q0 -92 -86 -148.5t-238 -56.5q-90 0 -174 28.5t-141 87.5z" />
<glyph unicode="&#xb4;" d="M358 1386l402 261l110 -185l-440 -196z" />
<glyph unicode="&#xb5;" d="M164 -440v1521h229v-610q0 -113 10.5 -177.5t44 -99t101.5 -34.5q76 0 137.5 40t106.5 105v776h229v-721q0 -167 45 -360l-213 -27q-12 31 -24.5 79t-14.5 89q-49 -76 -120.5 -122t-147.5 -46q-74 0 -116 21.5t-83 81.5q20 -68 29.5 -120t9.5 -108v-264z" />
<glyph unicode="&#xb6;" d="M68 991q0 121 59 217.5t177 150.5t284 54h571v-1831l-201 -22v1681h-206v-1659l-203 -22v1011q-233 8 -357 123t-124 297z" />
<glyph unicode="&#xb7;" d="M416 700q0 82 57 140.5t139 58.5q84 0 142.5 -58.5t58.5 -140.5q0 -84 -58.5 -141t-142.5 -57q-82 0 -139 57t-57 141z" />
<glyph unicode="&#xb8;" d="M367 -453l61 119q70 -35 135 -35q117 0 117 78q0 47 -44 63.5t-136 16.5l20 244h144v-144q98 -8 148 -58t50 -124q0 -98 -77.5 -156.5t-194.5 -58.5q-63 0 -121.5 15.5t-101.5 39.5z" />
<glyph unicode="&#xb9;" d="M434 1132l299 170h148v-657h-179v467l-182 -96z" />
<glyph unicode="&#xba;" d="M182 1085q0 133 53.5 236.5t151.5 162t227 58.5q199 0 314.5 -125t115.5 -332q0 -135 -52 -238.5t-150.5 -161.5t-227.5 -58q-199 0 -315.5 125t-116.5 333zM205 0v180h821v-180h-821zM397 1085q0 -152 57.5 -225.5t159.5 -73.5t158.5 74t56.5 225q0 152 -56 224.5 t-159 72.5q-102 0 -159.5 -72.5t-57.5 -224.5z" />
<glyph unicode="&#xbb;" d="M145 168l261 428l-261 428l136 86l354 -436v-156l-354 -436zM590 168l262 428l-262 428l135 86l358 -436v-156l-358 -436z" />
<glyph unicode="&#xbc;" d="M-15 1243l299 170h148v-657h-179v467l-182 -99zM26 498l1096 524l72 -127l-1096 -524zM598 115v112l266 451l152 -57l-222 -373h172l21 170h151v-170h105v-133h-105v-115h-172v115h-368z" />
<glyph unicode="&#xbd;" d="M-21 1243l299 170h148v-657h-179v467l-182 -99zM18 498l1096 524l72 -127l-1096 -524zM639 528q123 141 309 142q131 0 205 -60.5t74 -154.5q0 -64 -29.5 -112t-99.5 -94t-197 -108h349l-21 -141h-575v125q168 98 245.5 149.5t107.5 87t30 78.5q0 41 -28 64.5t-77 23.5 q-100 0 -174 -88z" />
<glyph unicode="&#xbe;" d="M-12 860l108 92q90 -76 209 -75q68 0 101.5 22.5t33.5 61.5q0 43 -31.5 62t-97.5 19h-100l19 105h75q111 0 111 70q0 76 -109 75q-55 0 -103 -16t-99 -53l-95 96q133 106 314 106q129 0 201.5 -50t72.5 -132q0 -57 -33.5 -91t-109.5 -48q90 -14 131 -49t41 -107 q0 -92 -86 -148.5t-238 -56.5q-90 0 -174 29t-141 88zM43 498l1096 524l72 -127l-1096 -524zM598 115v112l266 451l152 -57l-222 -373h172l21 170h151v-170h105v-133h-105v-115h-172v115h-368z" />
<glyph unicode="&#xbf;" d="M180 -115q0 80 28 136.5t66.5 93.5t104.5 82q88 63 132 116.5t44 143.5v59h219v-74q0 -88 -29.5 -150.5t-71.5 -102t-108 -89.5q-76 -57 -110.5 -97t-34.5 -101q0 -74 59.5 -116t153.5 -42q74 0 145.5 36t130.5 105l154 -116q-176 -211 -453 -211q-133 0 -230 45 t-148.5 120.5t-51.5 161.5zM504 874q0 66 45 112t108 46q66 0 111 -46t45 -112q0 -63 -45 -108t-111 -45q-63 0 -108 45t-45 108z" />
<glyph unicode="&#xc0;" d="M16 0l451 1413h295l450 -1413h-251l-99 340h-504l-98 -340h-244zM363 1712l104 184l403 -233l-63 -119zM408 524h405l-203 705z" />
<glyph unicode="&#xc1;" d="M16 0l451 1413h295l450 -1413h-251l-99 340h-504l-98 -340h-244zM360 1663l420 229l94 -184l-456 -164zM408 524h405l-203 705z" />
<glyph unicode="&#xc2;" d="M16 0l451 1413h295l450 -1413h-251l-99 340h-504l-98 -340h-244zM260 1653l281 237h147l281 -237l-90 -105l-265 168l-262 -168zM408 524h405l-203 705z" />
<glyph unicode="&#xc3;" d="M16 0l451 1413h295l450 -1413h-251l-99 340h-504l-98 -340h-244zM262 1636q35 88 96.5 143.5t145.5 55.5q49 0 83 -16.5t70 -42.5q27 -20 41.5 -28.5t32.5 -8.5q33 0 56.5 21.5t48.5 68.5l131 -60q-37 -88 -97.5 -144t-144.5 -56q-47 0 -79 15t-73 44q-25 18 -41 27.5 t-34 9.5q-33 0 -55.5 -20.5t-49.5 -67.5zM408 524h405l-203 705z" />
<glyph unicode="&#xc4;" d="M16 0l451 1413h295l450 -1413h-251l-99 340h-504l-98 -340h-244zM260 1698q0 57 38 94t95 37t95 -37t38 -94q0 -55 -37.5 -92t-95.5 -37q-57 0 -95 36.5t-38 92.5zM408 524h405l-203 705zM703 1698q0 55 38.5 93t94.5 38q57 0 96 -37t39 -94q0 -55 -39 -92t-96 -37 q-56 0 -94.5 36.5t-38.5 92.5z" />
<glyph unicode="&#xc5;" d="M16 0l451 1413h295l450 -1413h-251l-99 340h-504l-98 -340h-244zM367 1735q0 98 69.5 165.5t177.5 67.5q111 0 180.5 -67.5t69.5 -165.5t-69.5 -165t-180.5 -67q-109 0 -178 67.5t-69 164.5zM408 524h405l-203 705zM512 1735q0 -53 27.5 -82t74.5 -29q49 0 77 28.5 t28 82.5q0 53 -27.5 81.5t-77.5 28.5q-47 0 -74.5 -28.5t-27.5 -81.5z" />
<glyph unicode="&#xc6;" d="M-25 0l394 1413h790l-26 -176h-441l90 -432h359v-176h-326l92 -453h334v-176h-514l-63 342h-369l-84 -342h-236zM338 522h291l-133 719z" />
<glyph unicode="&#xc7;" d="M106 709q0 229 83 395t225.5 252t318.5 86q137 0 236.5 -35t189.5 -109l-123 -147q-129 104 -293 104q-172 0 -280.5 -132t-108.5 -414q0 -279 106.5 -411t284.5 -132q100 0 174 31.5t146 89.5l115 -146q-162 -158 -412 -168v-84q98 -8 148.5 -58t50.5 -124 q0 -98 -78 -156.5t-195 -58.5q-63 0 -121.5 15.5t-101.5 39.5l61 119q70 -35 136 -35q117 0 116 78q0 47 -44 63.5t-136 16.5l17 195q-233 39 -374 226t-141 499z" />
<glyph unicode="&#xc8;" d="M231 0v1413h850l-26 -180h-586v-424h512v-180h-512v-449h625v-180h-863zM404 1712l104 184l403 -233l-63 -119z" />
<glyph unicode="&#xc9;" d="M231 0v1413h850l-26 -180h-586v-424h512v-180h-512v-449h625v-180h-863zM403 1663l420 229l94 -184l-456 -164z" />
<glyph unicode="&#xca;" d="M231 0v1413h850l-26 -180h-586v-424h512v-180h-512v-449h625v-180h-863zM303 1653l281 237h147l281 -237l-90 -105l-265 168l-262 -168z" />
<glyph unicode="&#xcb;" d="M231 0v1413h850l-26 -180h-586v-424h512v-180h-512v-449h625v-180h-863zM301 1698q0 57 38 94t95 37t95 -37t38 -94q0 -55 -37.5 -92t-95.5 -37q-57 0 -95 36.5t-38 92.5zM744 1698q0 55 38.5 93t94.5 38q57 0 96 -37t39 -94q0 -55 -39 -92t-96 -37q-56 0 -94.5 36.5 t-38.5 92.5z" />
<glyph unicode="&#xcc;" d="M188 0v182h306v1049h-306v182h852v-182h-305v-1049h305v-182h-852zM361 1712l104 184l403 -233l-63 -119z" />
<glyph unicode="&#xcd;" d="M188 0v182h306v1049h-306v182h852v-182h-305v-1049h305v-182h-852zM360 1663l420 229l94 -184l-456 -164z" />
<glyph unicode="&#xce;" d="M188 0v182h306v1049h-306v182h852v-182h-305v-1049h305v-182h-852zM260 1653l281 237h147l281 -237l-90 -105l-265 168l-262 -168z" />
<glyph unicode="&#xcf;" d="M188 0v182h306v1049h-306v182h852v-182h-305v-1049h305v-182h-852zM258 1698q0 57 38 94t95 37t95 -37t38 -94q0 -55 -37.5 -92t-95.5 -37q-57 0 -95 36.5t-38 92.5zM701 1698q0 55 38.5 93t94.5 38q57 0 96 -37t39 -94q0 -55 -39 -92t-96 -37q-56 0 -94.5 36.5 t-38.5 92.5z" />
<glyph unicode="&#xd0;" d="M33 643v160h135v610h324q305 0 492 -149.5t187 -548.5q0 -401 -186 -558t-471 -157h-346v643h-135zM406 182h133q383 1 383 533q0 303 -105.5 409.5t-279.5 106.5h-131v-428h294v-160h-294v-461z" />
<glyph unicode="&#xd1;" d="M145 0v1413h310l442 -1171h8q-10 59 -22.5 209.5t-12.5 318.5v643h213v-1413h-311l-440 1167h-8q10 -57 22 -216.5t12 -309.5v-641h-213zM268 1636q35 88 96.5 143.5t145.5 55.5q49 0 83 -16.5t70 -42.5q27 -20 41.5 -28.5t32.5 -8.5q33 0 56.5 21.5t48.5 68.5l131 -60 q-37 -88 -97.5 -144t-144.5 -56q-47 0 -79 15t-73 44q-25 18 -41 27.5t-34 9.5q-33 0 -55.5 -20.5t-49.5 -67.5z" />
<glyph unicode="&#xd2;" d="M76 705q0 221 61.5 386.5t182 258t294.5 92.5q260 0 399.5 -197.5t139.5 -537.5q0 -336 -139.5 -535t-399.5 -199t-399 196t-139 536zM324 705q0 -276 70.5 -411.5t219.5 -135.5q154 0 222.5 135t68.5 414q0 278 -68.5 413t-222.5 135t-222 -135t-68 -415zM361 1712 l104 184l403 -233l-63 -119z" />
<glyph unicode="&#xd3;" d="M76 705q0 221 61.5 386.5t182 258t294.5 92.5q260 0 399.5 -197.5t139.5 -537.5q0 -336 -139.5 -535t-399.5 -199t-399 196t-139 536zM324 705q0 -276 70.5 -411.5t219.5 -135.5q154 0 222.5 135t68.5 414q0 278 -68.5 413t-222.5 135t-222 -135t-68 -415zM360 1663 l420 229l94 -184l-456 -164z" />
<glyph unicode="&#xd4;" d="M76 705q0 221 61.5 386.5t182 258t294.5 92.5q260 0 399.5 -197.5t139.5 -537.5q0 -336 -139.5 -535t-399.5 -199t-399 196t-139 536zM260 1653l281 237h147l281 -237l-90 -105l-265 168l-262 -168zM324 705q0 -276 70.5 -411.5t219.5 -135.5q154 0 222.5 135t68.5 414 q0 278 -68.5 413t-222.5 135t-222 -135t-68 -415z" />
<glyph unicode="&#xd5;" d="M76 705q0 221 61.5 386.5t182 258t294.5 92.5q260 0 399.5 -197.5t139.5 -537.5q0 -336 -139.5 -535t-399.5 -199t-399 196t-139 536zM260 1636q35 88 96.5 143.5t145.5 55.5q49 0 83 -16.5t70 -42.5q27 -20 41.5 -28.5t32.5 -8.5q33 0 56.5 21.5t48.5 68.5l131 -60 q-37 -88 -97.5 -144t-144.5 -56q-47 0 -79 15t-73 44q-25 18 -41 27.5t-34 9.5q-33 0 -55.5 -20.5t-49.5 -67.5zM324 705q0 -276 70.5 -411.5t219.5 -135.5q154 0 222.5 135t68.5 414q0 278 -68.5 413t-222.5 135t-222 -135t-68 -415z" />
<glyph unicode="&#xd6;" d="M76 705q0 221 61.5 386.5t182 258t294.5 92.5q260 0 399.5 -197.5t139.5 -537.5q0 -336 -139.5 -535t-399.5 -199t-399 196t-139 536zM258 1698q0 57 38 94t95 37t95 -37t38 -94q0 -55 -37.5 -92t-95.5 -37q-57 0 -95 36.5t-38 92.5zM324 705q0 -276 70.5 -411.5 t219.5 -135.5q154 0 222.5 135t68.5 414q0 278 -68.5 413t-222.5 135t-222 -135t-68 -415zM701 1698q0 55 38.5 93t94.5 38q57 0 96 -37t39 -94q0 -55 -39 -92t-96 -37q-56 0 -94.5 36.5t-38.5 92.5z" />
<glyph unicode="&#xd7;" d="M233 383l248 246l-248 245l136 136l245 -248l246 248l135 -136l-247 -245l247 -246l-135 -133l-246 246l-245 -246z" />
<glyph unicode="&#xd8;" d="M76 705q0 221 61.5 386.5t182 258t294.5 92.5q68 0 123 -15l64 218l180 -52l-74 -241q119 -88 182.5 -255t63.5 -390q0 -336 -139.5 -535t-399.5 -199q-61 0 -120 13l-64 -211l-182 51l74 237q-119 88 -182.5 253t-63.5 389zM319 705q0 -334 93 -457l288 999 q-41 10 -86 10q-155 0 -225 -135t-70 -417zM528 168q45 -10 86 -10q156 0 225.5 134t69.5 415q0 172 -22.5 283.5t-69.5 174.5z" />
<glyph unicode="&#xd9;" d="M125 463v950h237v-905q0 -174 60.5 -260t189.5 -86q131 0 191.5 86t60.5 260v905h240v-950q0 -144 -58.5 -254.5t-169 -173t-264.5 -62.5q-231 0 -359 133.5t-128 356.5zM361 1712l104 184l403 -233l-63 -119z" />
<glyph unicode="&#xda;" d="M125 463v950h237v-905q0 -174 60.5 -260t189.5 -86q131 0 191.5 86t60.5 260v905h240v-950q0 -144 -58.5 -254.5t-169 -173t-264.5 -62.5q-231 0 -359 133.5t-128 356.5zM360 1663l420 229l94 -184l-456 -164z" />
<glyph unicode="&#xdb;" d="M125 463v950h237v-905q0 -174 60.5 -260t189.5 -86q131 0 191.5 86t60.5 260v905h240v-950q0 -144 -58.5 -254.5t-169 -173t-264.5 -62.5q-231 0 -359 133.5t-128 356.5zM260 1653l281 237h147l281 -237l-90 -105l-265 168l-262 -168z" />
<glyph unicode="&#xdc;" d="M125 463v950h237v-905q0 -174 60.5 -260t189.5 -86q131 0 191.5 86t60.5 260v905h240v-950q0 -144 -58.5 -254.5t-169 -173t-264.5 -62.5q-231 0 -359 133.5t-128 356.5zM258 1698q0 57 38 94t95 37t95 -37t38 -94q0 -55 -37.5 -92t-95.5 -37q-57 0 -95 36.5t-38 92.5z M701 1698q0 55 38.5 93t94.5 38q57 0 96 -37t39 -94q0 -55 -39 -92t-96 -37q-56 0 -94.5 36.5t-38.5 92.5z" />
<glyph unicode="&#xdd;" d="M23 1413h262l333 -670l338 670h250l-471 -872v-541h-241v539zM364 1663l420 229l94 -184l-456 -164z" />
<glyph unicode="&#xde;" d="M182 0v1413h238v-235h168q272 0 419.5 -113t147.5 -338q0 -240 -146.5 -356.5t-404.5 -116.5h-184v-254h-238zM420 434h190q141 0 218 65.5t77 223.5q0 143 -77.5 209.5t-221.5 66.5h-186v-565z" />
<glyph unicode="&#xdf;" d="M168 0v1090q0 219 113.5 335.5t322.5 116.5q172 0 274.5 -86t102.5 -219q0 -72 -30.5 -117t-92.5 -102q-47 -43 -68.5 -70.5t-21.5 -66.5q0 -47 35 -82t108 -84q78 -53 126 -96.5t84 -112t36 -164.5q0 -115 -52 -199t-141.5 -127t-199.5 -43q-154 0 -262 68l82 156 q76 -43 155 -43q88 0 135.5 46t47.5 136q0 80 -45.5 131t-133.5 113q-61 43 -99 74.5t-63.5 79.5t-25.5 112q0 68 28.5 114t82.5 99q47 45 70.5 81t23.5 83q0 61 -39 104t-121 43q-102 0 -151.5 -63.5t-49.5 -202.5v-1104h-231z" />
<glyph unicode="&#xe0;" d="M115 309q0 170 133 262.5t381 92.5h153v69q0 102 -61.5 149.5t-177.5 47.5q-57 0 -133 -14.5t-154 -41.5l-57 162q195 74 379 74q215 0 323.5 -94t108.5 -268v-482q0 -63 18.5 -93t63.5 -44l-54 -156q-170 20 -223 150q-59 -74 -149.5 -112t-196.5 -38q-164 0 -259 92.5 t-95 243.5zM342 1464l109 183l403 -261l-71 -120zM356 317q0 -86 46.5 -131t136.5 -45q71 0 137.5 38t105.5 104v237h-127q-156 0 -227.5 -52t-71.5 -151z" />
<glyph unicode="&#xe1;" d="M115 309q0 170 133 262.5t381 92.5h153v69q0 102 -61.5 149.5t-177.5 47.5q-57 0 -133 -14.5t-154 -41.5l-57 162q195 74 379 74q215 0 323.5 -94t108.5 -268v-482q0 -63 18.5 -93t63.5 -44l-54 -156q-170 20 -223 150q-59 -74 -149.5 -112t-196.5 -38q-164 0 -259 92.5 t-95 243.5zM342 1386l402 261l110 -185l-440 -196zM356 317q0 -86 46.5 -131t136.5 -45q71 0 137.5 38t105.5 104v237h-127q-156 0 -227.5 -52t-71.5 -151z" />
<glyph unicode="&#xe2;" d="M115 309q0 170 133 262.5t381 92.5h153v69q0 102 -61.5 149.5t-177.5 47.5q-57 0 -133 -14.5t-154 -41.5l-57 162q195 74 379 74q215 0 323.5 -94t108.5 -268v-482q0 -63 18.5 -93t63.5 -44l-54 -156q-170 20 -223 150q-59 -74 -149.5 -112t-196.5 -38q-164 0 -259 92.5 t-95 243.5zM244 1378l281 258h147l281 -258l-92 -104l-261 188l-262 -188zM356 317q0 -86 46.5 -131t136.5 -45q71 0 137.5 38t105.5 104v237h-127q-156 0 -227.5 -52t-71.5 -151z" />
<glyph unicode="&#xe3;" d="M115 309q0 170 133 262.5t381 92.5h153v69q0 102 -61.5 149.5t-177.5 47.5q-57 0 -133 -14.5t-154 -41.5l-57 162q195 74 379 74q215 0 323.5 -94t108.5 -268v-482q0 -63 18.5 -93t63.5 -44l-54 -156q-170 20 -223 150q-59 -74 -149.5 -112t-196.5 -38q-164 0 -259 92.5 t-95 243.5zM244 1389q37 88 98.5 143t145.5 55q49 0 80.5 -15.5t72.5 -43.5q45 -37 74 -37q33 0 55.5 21.5t49.5 68.5l131 -59q-35 -88 -97.5 -144.5t-146.5 -56.5q-45 0 -79 15.5t-73 43.5q-25 18 -41 27.5t-34 9.5q-31 0 -54.5 -21.5t-50.5 -68.5zM356 317 q0 -86 46.5 -131t136.5 -45q71 0 137.5 38t105.5 104v237h-127q-156 0 -227.5 -52t-71.5 -151z" />
<glyph unicode="&#xe4;" d="M115 309q0 170 133 262.5t381 92.5h153v69q0 102 -61.5 149.5t-177.5 47.5q-57 0 -133 -14.5t-154 -41.5l-57 162q195 74 379 74q215 0 323.5 -94t108.5 -268v-482q0 -63 18.5 -93t63.5 -44l-54 -156q-170 20 -223 150q-59 -74 -149.5 -112t-196.5 -38q-164 0 -259 92.5 t-95 243.5zM242 1450q0 55 39 92t96 37q55 0 94 -37t39 -92t-38.5 -93t-94.5 -38q-57 0 -96 37t-39 94zM356 317q0 -86 46.5 -131t136.5 -45q71 0 137.5 38t105.5 104v237h-127q-156 0 -227.5 -52t-71.5 -151zM686 1450q0 55 39 92t95 37q57 0 95 -37t38 -92q0 -57 -38 -94 t-95 -37q-56 0 -95 38t-39 93z" />
<glyph unicode="&#xe5;" d="M115 309q0 170 133 262.5t381 92.5h153v69q0 102 -61.5 149.5t-177.5 47.5q-57 0 -133 -14.5t-154 -41.5l-57 162q195 74 379 74q215 0 323.5 -94t108.5 -268v-482q0 -63 18.5 -93t63.5 -44l-54 -156q-170 20 -223 150q-59 -74 -149.5 -112t-196.5 -38q-164 0 -259 92.5 t-95 243.5zM349 1487q0 98 69.5 164.5t179.5 66.5q111 0 179.5 -66.5t68.5 -164.5t-68.5 -166t-179.5 -68t-180 68t-69 166zM356 317q0 -86 46.5 -131t136.5 -45q71 0 137.5 38t105.5 104v237h-127q-156 0 -227.5 -52t-71.5 -151zM494 1487q0 -53 28.5 -83t75.5 -30t75 30 t28 83q0 51 -27.5 79.5t-75.5 28.5q-47 0 -75.5 -28.5t-28.5 -79.5z" />
<glyph unicode="&#xe6;" d="M-12 309q0 172 108.5 262.5t321.5 90.5h88v71q0 213 -184 213q-49 0 -93.5 -12t-111.5 -43l-58 147q156 72 285 72q113 0 179.5 -43t103.5 -123q33 78 98.5 122t159.5 44q352 0 352 -541q0 -41 -4 -98h-528q14 -170 65 -249t152 -79q53 0 98 18.5t96 57.5l96 -135 q-66 -53 -137 -82t-162 -29q-209 0 -313 179q-68 -96 -135.5 -137.5t-167.5 -41.5q-141 0 -225 92.5t-84 243.5zM205 322q0 -90 34.5 -138.5t96.5 -48.5q55 0 99 41t93 129q-23 102 -22 215h-70q-123 0 -177 -51t-54 -147zM705 623h335q-4 168 -39.5 244.5t-123.5 76.5 q-82 0 -122 -71.5t-50 -249.5z" />
<glyph unicode="&#xe7;" d="M170 535q0 166 63.5 296t183.5 204.5t283 74.5q215 0 375 -129l-106 -150q-129 94 -264 95q-135 0 -213 -97.5t-78 -293.5q0 -193 78.5 -283t212.5 -90q133 0 266 98l106 -154q-66 -55 -152.5 -88.5t-181.5 -42.5v-86q99 -8 149 -58t50 -124q0 -98 -78 -156.5t-194 -58.5 q-63 0 -122 15.5t-102 39.5l62 119q70 -35 135 -35q117 0 117 78q0 47 -44 63.5t-136 16.5l16 193q-203 31 -314.5 177t-111.5 376z" />
<glyph unicode="&#xe8;" d="M135 541q0 162 59.5 292t170 203.5t258.5 73.5q219 0 346 -144.5t127 -396.5q0 -61 -6 -102h-717q10 -158 91 -236.5t204 -78.5q162 0 282 100l101 -143q-76 -63 -178.5 -99.5t-215.5 -36.5q-248 0 -385 155t-137 413zM373 625h499q-4 154 -66.5 234.5t-178.5 80.5 q-109 0 -176.5 -80t-77.5 -235zM376 1464l109 183l403 -261l-71 -120z" />
<glyph unicode="&#xe9;" d="M135 541q0 162 59.5 292t170 203.5t258.5 73.5q219 0 346 -144.5t127 -396.5q0 -61 -6 -102h-717q10 -158 91 -236.5t204 -78.5q162 0 282 100l101 -143q-76 -63 -178.5 -99.5t-215.5 -36.5q-248 0 -385 155t-137 413zM373 625h499q-4 154 -66.5 234.5t-178.5 80.5 q-109 0 -176.5 -80t-77.5 -235zM376 1386l402 261l110 -185l-440 -196z" />
<glyph unicode="&#xea;" d="M135 541q0 162 59.5 292t170 203.5t258.5 73.5q219 0 346 -144.5t127 -396.5q0 -61 -6 -102h-717q10 -158 91 -236.5t204 -78.5q162 0 282 100l101 -143q-76 -63 -178.5 -99.5t-215.5 -36.5q-248 0 -385 155t-137 413zM278 1378l281 258h147l281 -258l-92 -104l-261 188 l-262 -188zM373 625h499q-4 154 -66.5 234.5t-178.5 80.5q-109 0 -176.5 -80t-77.5 -235z" />
<glyph unicode="&#xeb;" d="M135 541q0 162 59.5 292t170 203.5t258.5 73.5q219 0 346 -144.5t127 -396.5q0 -61 -6 -102h-717q10 -158 91 -236.5t204 -78.5q162 0 282 100l101 -143q-76 -63 -178.5 -99.5t-215.5 -36.5q-248 0 -385 155t-137 413zM276 1450q0 55 39 92t96 37q55 0 94 -37t39 -92 t-38.5 -93t-94.5 -38q-57 0 -96 37t-39 94zM373 625h499q-4 154 -66.5 234.5t-178.5 80.5q-109 0 -176.5 -80t-77.5 -235zM720 1450q0 55 39 92t95 37q57 0 95 -37t38 -92q0 -57 -38 -94t-95 -37q-56 0 -95 38t-39 93z" />
<glyph unicode="&#xec;" d="M219 0v168h324v745h-314v168h545v-913h293v-168h-848zM358 1464l109 183l403 -261l-71 -120z" />
<glyph unicode="&#xed;" d="M219 0v168h324v745h-314v168h545v-913h293v-168h-848zM358 1386l402 261l110 -185l-440 -196z" />
<glyph unicode="&#xee;" d="M219 0v168h324v745h-314v168h545v-913h293v-168h-848zM260 1378l281 258h147l281 -258l-92 -104l-261 188l-262 -188z" />
<glyph unicode="&#xef;" d="M219 0v168h324v745h-314v168h545v-913h293v-168h-848zM258 1450q0 55 39 92t96 37q55 0 94 -37t39 -92t-38.5 -93t-94.5 -38q-57 0 -96 37t-39 94zM702 1450q0 55 39 92t95 37q57 0 95 -37t38 -92q0 -57 -38 -94t-95 -37q-56 0 -95 38t-39 93z" />
<glyph unicode="&#xf0;" d="M117 481q0 147 59.5 262t159.5 178.5t217 63.5q96 0 171 -31.5t134 -95.5q-63 236 -248 373l-143 -148l-154 74l148 156q-92 38 -219 63l47 164q184 -33 303 -90l145 154l129 -113l-121 -123q186 -125 275.5 -326.5t89.5 -490.5q0 -170 -61.5 -301t-176 -204t-268.5 -73 q-137 0 -247.5 60.5t-175 175.5t-64.5 272zM350 487q0 -166 68.5 -253t185.5 -87q131 0 202 99.5t71 292.5q-1 71 -7 139q-45 66 -115.5 100.5t-154.5 34.5q-111 0 -180.5 -82t-69.5 -244z" />
<glyph unicode="&#xf1;" d="M182 0v1081h199l16 -139q68 80 160 124t191 44q150 0 225.5 -83t75.5 -239v-788h-230v676q0 98 -12 152.5t-45 80t-96 25.5q-74 0 -138.5 -45t-115.5 -115v-774h-230zM260 1381q37 88 98.5 143t145.5 55q49 0 80.5 -15.5t72.5 -43.5q45 -37 74 -37q33 0 55.5 21.5 t49.5 68.5l131 -59q-35 -88 -97.5 -144.5t-146.5 -56.5q-45 0 -79 15.5t-73 43.5q-25 18 -41 27.5t-34 9.5q-31 0 -54.5 -21.5t-50.5 -68.5z" />
<glyph unicode="&#xf2;" d="M125 541q0 258 130 413.5t361 155.5q234 0 361 -152.5t127 -414.5t-129 -416t-361 -154q-233 0 -361 150.5t-128 417.5zM358 1464l109 183l403 -261l-71 -120zM367 541q0 -201 61 -296t186 -95t186.5 96t61.5 297q0 199 -61.5 294t-184.5 95q-124 0 -186.5 -96.5 t-62.5 -294.5z" />
<glyph unicode="&#xf3;" d="M125 541q0 258 130 413.5t361 155.5q234 0 361 -152.5t127 -414.5t-129 -416t-361 -154q-233 0 -361 150.5t-128 417.5zM358 1386l402 261l110 -185l-440 -196zM367 541q0 -201 61 -296t186 -95t186.5 96t61.5 297q0 199 -61.5 294t-184.5 95q-124 0 -186.5 -96.5 t-62.5 -294.5z" />
<glyph unicode="&#xf4;" d="M125 541q0 258 130 413.5t361 155.5q234 0 361 -152.5t127 -414.5t-129 -416t-361 -154q-233 0 -361 150.5t-128 417.5zM260 1378l281 258h147l281 -258l-92 -104l-261 188l-262 -188zM367 541q0 -201 61 -296t186 -95t186.5 96t61.5 297q0 199 -61.5 294t-184.5 95 q-124 0 -186.5 -96.5t-62.5 -294.5z" />
<glyph unicode="&#xf5;" d="M125 541q0 258 130 413.5t361 155.5q234 0 361 -152.5t127 -414.5t-129 -416t-361 -154q-233 0 -361 150.5t-128 417.5zM260 1389q37 88 98.5 143t145.5 55q49 0 80.5 -15.5t72.5 -43.5q45 -37 74 -37q33 0 55.5 21.5t49.5 68.5l131 -59q-35 -88 -97.5 -144.5 t-146.5 -56.5q-45 0 -79 15.5t-73 43.5q-25 18 -41 27.5t-34 9.5q-31 0 -54.5 -21.5t-50.5 -68.5zM367 541q0 -201 61 -296t186 -95t186.5 96t61.5 297q0 199 -61.5 294t-184.5 95q-124 0 -186.5 -96.5t-62.5 -294.5z" />
<glyph unicode="&#xf6;" d="M125 541q0 258 130 413.5t361 155.5q234 0 361 -152.5t127 -414.5t-129 -416t-361 -154q-233 0 -361 150.5t-128 417.5zM258 1450q0 55 39 92t96 37q55 0 94 -37t39 -92t-38.5 -93t-94.5 -38q-57 0 -96 37t-39 94zM367 541q0 -201 61 -296t186 -95t186.5 96t61.5 297 q0 199 -61.5 294t-184.5 95q-124 0 -186.5 -96.5t-62.5 -294.5zM702 1450q0 55 39 92t95 37q57 0 95 -37t38 -92q0 -57 -38 -94t-95 -37q-56 0 -95 38t-39 93z" />
<glyph unicode="&#xf7;" d="M211 551v186h807v-186h-807zM459 229q0 63 45 108.5t110 45.5q66 0 111 -45t45 -109q0 -66 -45 -111.5t-111 -45.5t-110.5 46t-44.5 111zM459 1061q0 63 45 108t110 45q66 0 111 -45t45 -108q0 -66 -45 -111t-111 -45t-110.5 45t-44.5 111z" />
<glyph unicode="&#xf8;" d="M125 541q0 258 130 413.5t361 155.5q45 0 86 -6l78 242l178 -52l-81 -252q108 -69 167.5 -198t59.5 -301q0 -262 -129 -416t-361 -154q-47 0 -88 7l-75 -252l-179 53l84 258q-113 68 -172 197t-59 305zM367 541q0 -127 19.5 -207t59.5 -125l224 721q-33 4 -54 4 q-127 0 -188 -96.5t-61 -296.5zM561 154q33 -4 53 -4q127 0 188.5 95t61.5 298q0 242 -78 327z" />
<glyph unicode="&#xf9;" d="M182 297v784h230v-755q0 -95 37.5 -137t115.5 -42q74 0 142.5 43t109.5 109v782h230v-1081h-199l-14 139q-57 -80 -149.5 -123t-190.5 -43q-156 0 -234 84t-78 240zM358 1464l109 183l403 -261l-71 -120z" />
<glyph unicode="&#xfa;" d="M182 297v784h230v-755q0 -95 37.5 -137t115.5 -42q74 0 142.5 43t109.5 109v782h230v-1081h-199l-14 139q-57 -80 -149.5 -123t-190.5 -43q-156 0 -234 84t-78 240zM358 1386l402 261l110 -185l-440 -196z" />
<glyph unicode="&#xfb;" d="M182 297v784h230v-755q0 -95 37.5 -137t115.5 -42q74 0 142.5 43t109.5 109v782h230v-1081h-199l-14 139q-57 -80 -149.5 -123t-190.5 -43q-156 0 -234 84t-78 240zM260 1378l281 258h147l281 -258l-92 -104l-261 188l-262 -188z" />
<glyph unicode="&#xfc;" d="M182 297v784h230v-755q0 -95 37.5 -137t115.5 -42q74 0 142.5 43t109.5 109v782h230v-1081h-199l-14 139q-57 -80 -149.5 -123t-190.5 -43q-156 0 -234 84t-78 240zM258 1450q0 55 39 92t96 37q55 0 94 -37t39 -92t-38.5 -93t-94.5 -38q-57 0 -96 37t-39 94zM702 1450 q0 55 39 92t95 37q57 0 95 -37t38 -92q0 -57 -38 -94t-95 -37q-56 0 -95 38t-39 93z" />
<glyph unicode="&#xfd;" d="M100 1081h244l272 -921l277 921h235l-372 -1085q-66 -199 -191 -309.5t-340 -128.5l-28 172q106 16 171.5 50t103.5 85t71 135h-78zM358 1386l402 261l110 -185l-440 -196z" />
<glyph unicode="&#xfe;" d="M182 -442v1958l230 26v-584q55 72 133 112t166 40q393 0 393 -567q0 -256 -108.5 -413t-309.5 -157q-170 0 -274 119v-508zM412 272q82 -121 213 -120q119 0 178 94t59 295q0 207 -53 300t-162 93q-72 0 -131 -43t-104 -113v-506z" />
<glyph unicode="&#xff;" d="M100 1081h244l272 -921l277 921h235l-372 -1085q-66 -199 -191 -309.5t-340 -128.5l-28 172q106 16 171.5 50t103.5 85t71 135h-78zM258 1450q0 55 39 92t96 37q55 0 94 -37t39 -92t-38.5 -93t-94.5 -38q-57 0 -96 37t-39 94zM702 1450q0 55 39 92t95 37q57 0 95 -37 t38 -92q0 -57 -38 -94t-95 -37q-56 0 -95 38t-39 93z" />
<glyph unicode="&#x152;" d="M6 705q0 358 108.5 547.5t329.5 189.5q78 0 164 -29h629l-27 -176h-450q98 -135 112 -432h289v-176h-289q-8 -297 -120 -453h495v-176h-645q-84 -27 -158 -27q-223 0 -330.5 184.5t-107.5 547.5zM233 705q0 -297 51.5 -426t159.5 -129q115 0 165 129t50 428 q0 205 -21.5 325.5t-68.5 176t-125 55.5q-112 0 -161.5 -129t-49.5 -430z" />
<glyph unicode="&#x153;" d="M-10 541q0 264 89 416.5t269 152.5q115 0 180.5 -50t102.5 -147q84 197 280 197q179 0 260.5 -138t81.5 -403q0 -55 -6 -98h-516q14 -170 64.5 -249t148.5 -79q51 0 93 18.5t93 57.5l97 -135q-66 -55 -135.5 -83t-155.5 -28q-217 0 -309 191q-39 -94 -104.5 -142.5 t-174.5 -48.5q-180 0 -269 148.5t-89 419.5zM207 541q0 -211 36 -301t124 -90q59 0 93 37.5t49 122.5t15 233q0 207 -35.5 299t-121.5 92t-123 -93t-37 -300zM731 623h324q-2 168 -35 244.5t-117 76.5q-82 0 -122 -72.5t-50 -248.5z" />
<glyph unicode="&#x178;" d="M23 1413h262l333 -670l338 670h250l-471 -872v-541h-241v539zM264 1698q0 57 38 94t95 37t95 -37t38 -94q0 -55 -37.5 -92t-95.5 -37q-57 0 -95 36.5t-38 92.5zM707 1698q0 55 38.5 93t94.5 38q57 0 96 -37t39 -94q0 -55 -39 -92t-96 -37q-56 0 -94.5 36.5t-38.5 92.5z " />
<glyph unicode="&#x2c6;" d="M260 1378l281 258h147l281 -258l-92 -104l-261 188l-262 -188z" />
<glyph unicode="&#x2dc;" d="M260 1389q37 88 98.5 143t145.5 55q49 0 80.5 -15.5t72.5 -43.5q45 -37 74 -37q33 0 55.5 21.5t49.5 68.5l131 -59q-35 -88 -97.5 -144.5t-146.5 -56.5q-45 0 -79 15.5t-73 43.5q-25 18 -41 27.5t-34 9.5q-31 0 -54.5 -21.5t-50.5 -68.5z" />
<glyph unicode="&#x2000;" horiz-adv-x="984" />
<glyph unicode="&#x2001;" horiz-adv-x="1968" />
<glyph unicode="&#x2002;" horiz-adv-x="984" />
<glyph unicode="&#x2003;" horiz-adv-x="1968" />
<glyph unicode="&#x2004;" horiz-adv-x="656" />
<glyph unicode="&#x2005;" horiz-adv-x="492" />
<glyph unicode="&#x2006;" horiz-adv-x="328" />
<glyph unicode="&#x2007;" horiz-adv-x="328" />
<glyph unicode="&#x2008;" horiz-adv-x="246" />
<glyph unicode="&#x2009;" horiz-adv-x="393" />
<glyph unicode="&#x200a;" horiz-adv-x="109" />
<glyph unicode="&#x2010;" d="M244 547v188h743v-188h-743z" />
<glyph unicode="&#x2011;" d="M244 547v188h743v-188h-743z" />
<glyph unicode="&#x2012;" d="M244 547v188h743v-188h-743z" />
<glyph unicode="&#x2013;" d="M63 547v188h1104v-188h-1104z" />
<glyph unicode="&#x2014;" d="M0 547v188h1229v-188h-1229z" />
<glyph unicode="&#x2018;" d="M434 1116q0 33 10.5 71t36.5 95l160 334h154l-86 -371q63 -47 63 -129q0 -69 -49 -116.5t-121 -47.5t-120 47.5t-48 116.5z" />
<glyph unicode="&#x2019;" d="M432 952l86 373q-31 20 -47 53t-16 74q0 70 49 117t121 47t121 -47t49 -117q0 -33 -10.5 -68.5t-39.5 -95.5l-159 -336h-154z" />
<glyph unicode="&#x201a;" d="M432 -373l86 371q-63 47 -63 129q0 68 50 116t120 48q72 0 121 -47t49 -117q0 -35 -10.5 -69.5t-39.5 -96.5l-159 -334h-154z" />
<glyph unicode="&#x201c;" d="M207 1116q0 33 10 71t37 95l158 334h153l-84 -371q63 -47 64 -129q0 -69 -49.5 -116.5t-120.5 -47.5q-72 0 -120 47.5t-48 116.5zM664 1116q0 35 9 72t36 94l159 334h154l-86 -371q66 -49 65 -129q0 -67 -50 -115.5t-120 -48.5q-72 0 -119.5 47.5t-47.5 116.5z" />
<glyph unicode="&#x201d;" d="M205 958l84 371q-61 47 -62 129q0 70 49.5 116t120.5 46q72 0 121 -46t49 -116q0 -35 -11 -68.5t-40 -97.5l-158 -334h-153zM662 958l86 371q-66 49 -66 129q0 68 50 115t120 47q72 0 121 -46t49 -116q0 -37 -10.5 -71.5t-38.5 -94.5l-160 -334h-151z" />
<glyph unicode="&#x201e;" d="M207 -373l86 371q-66 49 -66 129q0 68 50.5 116t119.5 48q72 0 121 -47t49 -117q0 -37 -10 -72t-37 -94l-160 -334h-153zM662 -373l86 371q-66 49 -66 129q0 68 50 116t120 48q72 0 120 -47t48 -117q0 -37 -10.5 -74t-36.5 -92l-160 -334h-151z" />
<glyph unicode="&#x2022;" d="M348 700q0 113 76 189t190 76q115 0 191 -76t76 -191q0 -113 -76 -188.5t-191 -75.5q-112 0 -189 77t-77 189z" />
<glyph unicode="&#x2026;" d="M51 123q0 63 44 108t108 45q63 0 108 -45t45 -108t-45 -107.5t-108 -44.5t-107.5 44t-44.5 108zM461 123q0 63 45 108t108 45t107.5 -45t44.5 -108t-44 -107.5t-108 -44.5q-63 0 -108 44t-45 108zM872 123q0 63 44.5 108t107.5 45t108.5 -45t45.5 -108t-45.5 -107.5 t-108.5 -44.5t-107.5 44t-44.5 108z" />
<glyph unicode="&#x202f;" horiz-adv-x="393" />
<glyph unicode="&#x2039;" d="M360 518v156l369 436l139 -90l-270 -424l270 -422l-139 -92z" />
<glyph unicode="&#x203a;" d="M360 174l271 422l-271 424l140 90l368 -436v-156l-368 -436z" />
<glyph unicode="&#x205f;" horiz-adv-x="492" />
<glyph unicode="&#x20ac;" d="M70 485l34 142h140l2 172h-176l34 139h160q47 240 189.5 372t347.5 132q108 0 186 -24.5t152 -74.5l-101 -153q-57 37 -109 53.5t-116 16.5q-127 0 -206 -77t-107 -245h471l-35 -139h-453v-172h418l-35 -142h-372q25 -172 98.5 -250.5t210.5 -78.5q86 0 158.5 27.5 t128.5 72.5v-209q-137 -74 -302 -74q-221 0 -355 131.5t-173 380.5h-190z" />
<glyph unicode="&#x2122;" d="M6 1278v137h758l100 -547l88 547h217l29 -807h-154l-14 398l-2 84q0 86 8 159h-8l-92 -538h-145l-107 538h-8q10 -106 8 -241l-14 -400h-150l27 670h-191v-670h-161v670h-189z" />
<glyph unicode="&#x25fc;" horiz-adv-x="1085" d="M0 0v1085h1085v-1085h-1085z" />
<glyph unicode="&#xfb01;" d="M33 911v170h176v117q0 154 113.5 249t300.5 95q180 0 323 -63l-67 -160q-104 45 -234 45q-109 0 -160 -41t-51 -129v-113h602v-913h170v-168h-563v168h166v743h-375v-911h-225v911h-176z" />
<glyph unicode="&#xfb02;" d="M23 911v170h170v117q0 100 52 179t146 122t215 43q102 0 207 -37l178 33v-1264q0 -63 24.5 -88.5t69.5 -25.5t97 20l55 -166q-89 -41 -195 -41q-129 0 -202.5 72t-73.5 215v1088q-63 16 -143 16q-104 0 -153.5 -41t-49.5 -129v-113h225l-27 -170h-198v-911h-227v911h-170 z" />
</font>
</defs>
</svg>
