<?xml version="1.0" encoding="UTF-8" ?>
<!DOCTYPE svg PUBLIC "-//W3C//DTD SVG 1.1//EN" "http://www.w3.org/Graphics/SVG/1.1/DTD/svg11.dtd">
<svg width="497pt" height="395pt" viewBox="0 0 497 395" version="1.1" xmlns="http://www.w3.org/2000/svg">
<path fill="#ffffff" d=" M 0.00 0.00 L 497.00 0.00 L 497.00 40.58 C 495.88 28.76 490.09 17.70 481.35 9.75 C 477.03 6.70 472.17 4.43 467.19 2.71 C 459.72 0.17 451.74 0.85 444.00 0.78 C 310.33 0.80 176.66 0.78 43.00 0.79 C 33.34 0.72 23.91 4.42 16.28 10.21 C 9.05 16.70 3.64 25.43 1.87 35.05 C -0.62 46.84 2.67 59.54 10.02 69.00 C 17.76 79.06 30.27 85.28 42.99 85.23 C 176.99 85.26 311.00 85.22 445.00 85.25 C 451.89 85.20 458.95 85.70 465.66 83.77 C 477.50 80.61 487.70 71.97 492.84 60.85 C 495.16 56.01 496.19 50.70 497.00 45.44 L 497.00 195.52 C 495.98 185.39 492.30 175.29 484.97 168.01 C 477.96 160.65 468.22 155.94 458.08 155.16 C 452.72 154.77 447.35 155.02 442.00 154.98 C 309.32 154.97 176.65 155.00 43.97 154.97 C 33.14 154.86 22.31 158.97 14.45 166.45 C 6.05 174.23 1.16 185.56 1.02 196.99 C 1.01 208.24 5.58 219.47 13.66 227.34 C 21.37 235.00 32.12 239.49 43.01 239.44 C 176.67 239.47 310.34 239.44 444.00 239.46 C 450.22 239.41 456.50 239.81 462.66 238.70 C 474.55 236.45 485.30 228.79 491.21 218.21 C 494.56 212.51 496.07 205.97 497.00 199.48 L 497.00 395.00 L 0.00 395.00 L 0.00 0.00 Z" />
<path fill="#000000" d=" M 16.28 10.21 C 23.91 4.42 33.34 0.72 43.00 0.79 C 176.66 0.78 310.33 0.80 444.00 0.78 C 451.74 0.85 459.72 0.17 467.19 2.71 C 472.17 4.43 477.03 6.70 481.35 9.75 C 490.09 17.70 495.88 28.76 497.00 40.58 L 497.00 45.44 C 496.19 50.70 495.16 56.01 492.84 60.85 C 487.70 71.97 477.50 80.61 465.66 83.77 C 458.95 85.70 451.89 85.20 445.00 85.25 C 311.00 85.22 176.99 85.26 42.99 85.23 C 30.27 85.28 17.76 79.06 10.02 69.00 C 2.67 59.54 -0.62 46.84 1.87 35.05 C 3.64 25.43 9.05 16.70 16.28 10.21 Z" />
<path fill="#000000" d=" M 14.45 166.45 C 22.31 158.97 33.14 154.86 43.97 154.97 C 176.65 155.00 309.32 154.97 442.00 154.98 C 447.35 155.02 452.72 154.77 458.08 155.16 C 468.22 155.94 477.96 160.65 484.97 168.01 C 492.30 175.29 495.98 185.39 497.00 195.52 L 497.00 199.48 C 496.07 205.97 494.56 212.51 491.21 218.21 C 485.30 228.79 474.55 236.45 462.66 238.70 C 456.50 239.81 450.22 239.41 444.00 239.46 C 310.34 239.44 176.67 239.47 43.01 239.44 C 32.12 239.49 21.37 235.00 13.66 227.34 C 5.58 219.47 1.01 208.24 1.02 196.99 C 1.16 185.56 6.05 174.23 14.45 166.45 Z" />
<path fill="#000000" d=" M 39.44 309.56 C 41.27 309.36 43.11 309.28 44.96 309.26 C 180.99 309.28 317.02 309.27 453.05 309.27 C 464.08 309.16 475.27 312.99 483.27 320.71 C 491.60 328.39 496.77 339.62 496.43 351.03 C 496.98 362.49 492.13 373.95 483.82 381.81 C 478.64 387.11 471.78 390.31 464.92 392.85 C 457.45 394.75 449.65 394.31 442.00 394.34 C 313.33 394.33 184.67 394.34 56.00 394.33 C 49.19 394.34 42.31 394.70 35.58 393.37 C 22.94 390.44 11.39 382.14 5.61 370.37 C 1.56 362.00 -0.10 352.25 2.05 343.12 C 5.32 325.32 21.38 310.90 39.44 309.56 Z" />
</svg>
