<?xml version="1.0" encoding="UTF-8" standalone="no"?>
<svg width="259px" height="210px" viewBox="0 0 259 210" version="1.1" xmlns="http://www.w3.org/2000/svg" xmlns:xlink="http://www.w3.org/1999/xlink" xmlns:sketch="http://www.bohemiancoding.com/sketch/ns">
    <title>Slice 1</title>
    <description>Created with Sketch (http://www.bohemiancoding.com/sketch)</description>
    <defs></defs>
    <g id="Page 1" stroke="none" stroke-width="1" fill="none" fill-rule="evenodd">
        <path d="M19.4976905,0 C8.72941339,0 0,8.72807945 0,19.5 L0,19.5 C0,30.2695526 8.73195761,39 19.4976905,39 L238.502309,39 C249.270587,39 258,30.2719205 258,19.5 L258,19.5 C258,8.73044738 249.268042,0 238.502309,0 L19.4976905,0 Z M19.4976905,0" id="Rectangle 1" fill="#FFFFFF"></path>
        <path d="M19.4976905,85 C8.72941339,85 0,93.7280795 0,104.5 L0,104.5 C0,115.269553 8.73195761,124 19.4976905,124 L238.502309,124 C249.270587,124 258,115.271921 258,104.5 L258,104.5 C258,93.7304474 249.268042,85 238.502309,85 L19.4976905,85 Z M19.4976905,85" id="Rectangle 1 copy" fill="#FFFFFF"></path>
        <path d="M19.4976905,170 C8.72941339,170 0,178.728079 0,189.5 L0,189.5 C0,200.269553 8.73195761,209 19.4976905,209 L238.502309,209 C249.270587,209 258,200.271921 258,189.5 L258,189.5 C258,178.730447 249.268042,170 238.502309,170 L19.4976905,170 Z M19.4976905,170" id="Rectangle 1 copy 2" fill="#FFFFFF"></path>
    </g>
</svg>